<?xml version="1.0" encoding="iso-8859-1"?>
<!-- Generator: Adobe Illustrator 13.0.0, SVG Export Plug-In . SVG Version: 6.00 Build 14948)  -->
<!DOCTYPE svg PUBLIC "-//W3C//DTD SVG 1.1//EN" "http://www.w3.org/Graphics/SVG/1.1/DTD/svg11.dtd">
<svg xmlns="http://www.w3.org/2000/svg" xmlns:xlink="http://www.w3.org/1999/xlink" version="1.1" id="Layer_1" x="0px" y="0px" width="100px" height="100px" viewBox="0 0 100 100" enable-background="new 0 0 100 100" xml:space="preserve">












<g>
	<g>
		<g>
			<path fill-rule="evenodd" clip-rule="evenodd" fill="#98C24D" d="M78.233,38.752c0,18.713-12.965,36.964-28.965,36.964     S20.303,57.466,20.303,38.752c0-18.72,12.966-33.893,28.966-33.893S78.233,20.033,78.233,38.752z"/>
			<path fill="#333333" d="M52.757,60.491c-0.079-0.042-0.746,2.743-0.35-0.487c1.744-14.262,6.562-21.864,11.888-32.946     c2.858-5.958,2.545-7.704,3.19-9.842c-2.14,5.654-16.051,29.687-17.298,32.929c-0.514,1.335-0.729,1.823-1.55,4.344     c-1.974-4.895-5.953-11.849-9-15.66c-1.986-2.48-4.447-4.346-6.024-7.341c-4.949-9.384,1.103,2.938,2.56,4.897     c11.003,14.746,11.157,21.501,8.759,37.937c-0.054-0.382-0.112-0.654-0.169-0.757c-0.789-1.397-2.187-3.443-2.963-4.807     c-1.707-3.029-3.245-5.523-6.178-8.744c-1.803-1.992-7.132-5.312-8.121-8.149c-1.537-4.408,0.063,1.515,0.989,2.837     c1.273,1.834,3.245,3.443,4.562,5.417c10.54,15.814,9.049,18.008,9.548,35.138c8.581-1.616,6.196-0.07,7.099-12.566     c0.357-5.021,2.755-11.336,3.354-15.733c0.661-3.83,13.292-19.61,17.781-23.901c4.095-3.903,6.262-6.893,6.67-7.458     C76.03,37.55,55.556,53.262,52.757,60.491z"/>
		</g>
	</g>
</g>
</svg>
